# xmcd CD database file
#
# Track frame offsets:
#	150
#	15750
#	28994
#	41135
#	50900
#	60430
#	74680
#	89429
#	104407
#	114471
#	131334
#	145298
#	155367
#	163520
#	183690
#	196670
#	209060
#	221644
#	231913
#	240295
#	257536
#	271884
#	282470
#	294786
#
# Disc length: 4130 seconds
#
# Revision: 0
# Processed by: cddbd v1.4PL0 Copyright (c) Steve Scherf et al.
# Submitted via: Feurio! 1.66 - http://www.feurio.com
#
DISCID=66102018
DTITLE=Various Artist - Country Sampler Box - CD 1/2
DYEAR=1900
DGENRE=Country
TTITLE0=Truck Stop - Das alte Eisen
TTITLE1=Glen Campbell - Gentle On My Mind
TTITLE2=Merle Haggard - The Bottle Let Me Down
TTITLE3=Johnny Cash - Girl In Saskatoon
TTITLE4=Marty Robbins - Just Married
TTITLE5=Merle Haggard - Branded Man
TTITLE6=BR5 49 - Even If It's Wrong
TTITLE7=Willie Nelson - Nothing I Can Do About It Now
TTITLE8=Johnny Cash - The Troubadour
TTITLE9=Nanci Griffith - Banks of the Pontchartrain
TTITLE10=Mel McDaniel - The Tractor
TTITLE11=Flatlanders - You've Never Seen Me Cry
TTITLE12=Johnny Cash - You Dreamer You
TTITLE13=Nanci Griffith - Going Gone
TTITLE14=Flatlanders - Dallas
TTITLE15=Mel McDaniel - Oklahoma Shines
TTITLE16=Johnny Cash - Remember The Alamo
TTITLE17=Frankie Laine - Gunfight At O.K. Corral
TTITLE18=Johnny Cash - The Rebel Johnny Yuma
TTITLE19=Truck Stop - Heimat ist überall
TTITLE20=Johnny Cash - Monteagle Mountain
TTITLE21=Marty Robbins - She Was Only Seventeen (He Was One Year More)
TTITLE22=Johnny Cash - The Matador
TTITLE23=Willie Nelson - Little Old Fashioned Karma
EXTD=
EXTT0=
EXTT1=
EXTT2=
EXTT3=
EXTT4=
EXTT5=
EXTT6=
EXTT7=
EXTT8=
EXTT9=
EXTT10=
EXTT11=
EXTT12=
EXTT13=
EXTT14=
EXTT15=
EXTT16=
EXTT17=
EXTT18=
EXTT19=
EXTT20=
EXTT21=
EXTT22=
EXTT23=
PLAYORDER=
